<svg width="202" height="127" viewBox="0 0 202 127" fill="none" xmlns="http://www.w3.org/2000/svg">
<path d="M0 0H201.512V126.748H0V0Z" fill="#F3D746"/>
<path d="M40.2585 116.237C34.4118 116.237 29.8559 114.984 26.5908 112.478C23.3257 109.973 21.0098 106.328 19.643 101.544C18.3522 96.7606 17.7068 90.6481 17.7068 83.2067C17.7068 79.3342 17.2132 76.3349 16.2261 74.2088C15.239 72.0068 13.6064 70.1844 11.3285 68.7417L10.5312 68.4C9.46815 67.7166 8.70883 67.0712 8.25324 66.4638C7.87358 65.7804 7.68375 64.9831 7.68375 64.0719V61.794C7.68375 60.8828 7.87358 60.1234 8.25324 59.516C8.70883 58.8326 9.46815 58.1492 10.5312 57.4658L11.4424 57.0102C13.6444 55.5675 15.239 53.7831 16.2261 51.657C17.2132 49.455 17.7068 46.4557 17.7068 42.6591C17.7068 35.2178 18.3522 29.1432 19.643 24.4355C21.0098 19.6518 23.3257 16.007 26.5908 13.5013C29.8559 10.9955 34.4118 9.74265 40.2585 9.74265H40.828C41.5873 9.74265 42.1948 9.97044 42.6504 10.426C43.106 10.8816 43.3338 11.4891 43.3338 12.2484V16.4626C43.3338 17.2219 43.106 17.8294 42.6504 18.285C42.1948 18.7406 41.6253 18.9684 40.9419 18.9684H40.3724C36.7277 19.0443 33.9941 19.9555 32.1718 21.7019C30.4253 23.4484 29.2484 26.106 28.6409 29.6748C28.1094 33.1676 27.8437 38.2171 27.8437 44.8232C27.8437 53.6313 24.9962 59.6679 19.3013 62.9329C24.9962 66.198 27.8437 72.2346 27.8437 81.0427C27.8437 87.6488 28.1094 92.7362 28.6409 96.305C29.2484 99.8738 30.4253 102.531 32.1718 104.278C33.9941 106.024 36.7277 106.935 40.3724 107.011H40.9419C41.6253 107.011 42.1948 107.239 42.6504 107.695C43.106 108.15 43.3338 108.758 43.3338 109.517V113.731C43.3338 114.491 43.106 115.098 42.6504 115.554C42.1948 116.009 41.5873 116.237 40.828 116.237H40.2585Z" fill="#685F36"/>
<path d="M160.961 116.237C166.808 116.237 171.364 114.984 174.629 112.478C177.894 109.973 180.21 106.328 181.576 101.544C182.867 96.7606 183.513 90.6481 183.513 83.2067C183.513 79.3342 184.006 76.3349 184.993 74.2088C185.981 72.0068 187.613 70.1844 189.891 68.7417L190.688 68.4C191.751 67.7166 192.511 67.0712 192.966 66.4638C193.346 65.7804 193.536 64.9831 193.536 64.0719V61.794C193.536 60.8828 193.346 60.1234 192.966 59.516C192.511 58.8326 191.751 58.1492 190.688 57.4658L189.777 57.0102C187.575 55.5675 185.981 53.7831 184.993 51.657C184.006 49.455 183.513 46.4557 183.513 42.6591C183.513 35.2178 182.867 29.1432 181.576 24.4355C180.21 19.6518 177.894 16.007 174.629 13.5013C171.364 10.9955 166.808 9.74265 160.961 9.74265H160.392C159.632 9.74265 159.025 9.97044 158.569 10.426C158.114 10.8816 157.886 11.4891 157.886 12.2484V16.4626C157.886 17.2219 158.114 17.8294 158.569 18.285C159.025 18.7406 159.594 18.9684 160.278 18.9684H160.847C164.492 19.0443 167.225 19.9555 169.048 21.7019C170.794 23.4484 171.971 26.106 172.579 29.6748C173.11 33.1676 173.376 38.2171 173.376 44.8232C173.376 53.6313 176.223 59.6679 181.918 62.9329C176.223 66.198 173.376 72.2346 173.376 81.0427C173.376 87.6488 173.11 92.7362 172.579 96.305C171.971 99.8738 170.794 102.531 169.048 104.278C167.225 106.024 164.492 106.935 160.847 107.011H160.278C159.594 107.011 159.025 107.239 158.569 107.695C158.114 108.15 157.886 108.758 157.886 109.517V113.731C157.886 114.491 158.114 115.098 158.569 115.554C159.025 116.009 159.632 116.237 160.392 116.237H160.961Z" fill="#685F36"/>
<path d="M53.053 102.216C52.8291 102.216 52.6388 102.138 52.4821 101.981C52.3254 101.824 52.247 101.634 52.247 101.41V98.085C52.247 97.8611 52.3254 97.6708 52.4821 97.514C52.6388 97.3349 52.8291 97.2454 53.053 97.2454H56.4116C56.6355 97.2454 56.8258 97.3349 56.9825 97.514C57.1392 97.6708 57.2176 97.8611 57.2176 98.085V101.41C57.2176 101.634 57.1392 101.824 56.9825 101.981C56.8258 102.138 56.6355 102.216 56.4116 102.216H53.053Z" fill="black"/>
<path d="M68.3766 102.216C66.3391 102.216 64.8053 101.69 63.7754 100.637C62.7678 99.5627 62.2641 97.9954 62.2641 95.9355V88.3117H59.6108C59.3869 88.3117 59.1966 88.2333 59.0399 88.0766C58.8831 87.8975 58.8048 87.696 58.8048 87.4721V85.5577C58.8048 85.3338 58.8831 85.1435 59.0399 84.9867C59.1966 84.83 59.3869 84.7517 59.6108 84.7517H62.2641V79.1765C62.2641 78.9302 62.3424 78.7399 62.4992 78.6056C62.6559 78.4488 62.8462 78.3705 63.0701 78.3705H65.7905C66.0368 78.3705 66.2271 78.4488 66.3615 78.6056C66.5182 78.7399 66.5966 78.9302 66.5966 79.1765V84.7517H70.7947C71.041 84.7517 71.2313 84.83 71.3657 84.9867C71.5224 85.1211 71.6008 85.3114 71.6008 85.5577V87.4721C71.6008 87.7183 71.5224 87.9199 71.3657 88.0766C71.2089 88.2333 71.0186 88.3117 70.7947 88.3117H66.5966V95.5997C66.5966 96.5625 66.7645 97.2901 67.1003 97.7827C67.4362 98.2753 67.9959 98.5216 68.7796 98.5216H71.097C71.3209 98.5216 71.5112 98.6 71.6679 98.7567C71.8247 98.9134 71.903 99.1038 71.903 99.3277V101.41C71.903 101.634 71.8247 101.824 71.6679 101.981C71.5336 102.138 71.3433 102.216 71.097 102.216H68.3766Z" fill="black"/>
<path d="M82.607 102.552C79.9874 102.552 77.9611 101.88 76.5281 100.537C75.0951 99.1709 74.3227 97.3125 74.2107 94.9616L74.1771 93.4838L74.2107 92.0061C74.3227 89.6775 75.1063 87.8303 76.5617 86.4645C78.017 85.0987 80.0321 84.4158 82.607 84.4158C85.1819 84.4158 87.197 85.0987 88.6524 86.4645C90.1077 87.8303 90.8914 89.6775 91.0033 92.0061C91.0257 92.2747 91.0369 92.7673 91.0369 93.4838C91.0369 94.2003 91.0257 94.6929 91.0033 94.9616C90.8914 97.3125 90.1189 99.1709 88.6859 100.537C87.253 101.88 85.2267 102.552 82.607 102.552ZM82.607 99.2269C83.7937 99.2269 84.7117 98.8575 85.361 98.1186C86.0103 97.3573 86.3686 96.249 86.4357 94.7936C86.4581 94.5697 86.4693 94.1331 86.4693 93.4838C86.4693 92.8345 86.4581 92.3979 86.4357 92.174C86.3686 90.7186 86.0103 89.6215 85.361 88.8826C84.7117 88.1214 83.7937 87.7407 82.607 87.7407C81.4203 87.7407 80.5023 88.1214 79.853 88.8826C79.2037 89.6215 78.8455 90.7186 78.7783 92.174L78.7447 93.4838L78.7783 94.7936C78.8455 96.249 79.2037 97.3573 79.853 98.1186C80.5023 98.8575 81.4203 99.2269 82.607 99.2269Z" fill="black"/>
<path d="M101.24 102.552C98.9786 102.552 97.2434 101.824 96.0343 100.369C94.8252 98.9134 94.1759 96.9767 94.0863 94.5585L94.0528 93.4502L94.0863 92.3755C94.1535 90.0245 94.7916 88.1102 96.0007 86.6324C97.2322 85.1547 98.9786 84.4158 101.24 84.4158C103.412 84.4158 105.136 85.1547 106.412 86.6324V79.1765C106.412 78.9302 106.491 78.7399 106.647 78.6056C106.804 78.4488 106.994 78.3705 107.218 78.3705H110.073C110.319 78.3705 110.51 78.4488 110.644 78.6056C110.801 78.7399 110.879 78.9302 110.879 79.1765V101.41C110.879 101.634 110.801 101.824 110.644 101.981C110.51 102.138 110.319 102.216 110.073 102.216H107.42C107.196 102.216 107.005 102.138 106.849 101.981C106.692 101.824 106.614 101.634 106.614 101.41V100.167C105.337 101.757 103.546 102.552 101.24 102.552ZM102.483 98.9582C103.781 98.9582 104.744 98.544 105.371 97.7156C105.998 96.8871 106.345 95.8684 106.412 94.6593C106.435 94.3906 106.446 93.954 106.446 93.3495C106.446 92.7673 106.435 92.3419 106.412 92.0732C106.367 90.9537 106.009 90.0021 105.337 89.2185C104.688 88.4124 103.737 88.0094 102.483 88.0094C100.065 88.0094 98.7771 89.4984 98.6204 92.4763L98.5868 93.4838L98.6204 94.4914C98.7771 97.4693 100.065 98.9582 102.483 98.9582Z" fill="black"/>
<path d="M120.427 102.552C119.285 102.552 118.232 102.328 117.27 101.88C116.329 101.41 115.579 100.783 115.019 99.9994C114.482 99.2157 114.213 98.3537 114.213 97.4133C114.213 95.8908 114.829 94.6593 116.061 93.7189C117.292 92.7785 118.982 92.1404 121.132 91.8046L125.733 91.1328V90.4276C125.733 89.4424 125.487 88.7035 124.994 88.2109C124.502 87.7183 123.707 87.4721 122.61 87.4721C121.871 87.4721 121.266 87.6176 120.796 87.9087C120.348 88.1773 119.99 88.446 119.721 88.7147C119.453 89.0058 119.274 89.1961 119.184 89.2857C119.094 89.5543 118.926 89.6887 118.68 89.6887H116.094C115.893 89.6887 115.714 89.6215 115.557 89.4872C115.422 89.3528 115.355 89.1737 115.355 88.9498C115.378 88.3901 115.646 87.7519 116.161 87.0354C116.699 86.319 117.516 85.7032 118.613 85.1883C119.71 84.6733 121.054 84.4158 122.643 84.4158C125.285 84.4158 127.211 85.0091 128.42 86.1958C129.629 87.3825 130.234 88.9386 130.234 90.8642V101.41C130.234 101.634 130.155 101.824 129.998 101.981C129.864 102.138 129.674 102.216 129.427 102.216H126.707C126.483 102.216 126.293 102.138 126.136 101.981C125.979 101.824 125.901 101.634 125.901 101.41V100.1C125.408 100.817 124.703 101.41 123.785 101.88C122.89 102.328 121.77 102.552 120.427 102.552ZM121.569 99.3612C122.8 99.3612 123.808 98.9582 124.591 98.1522C125.375 97.3461 125.767 96.1706 125.767 94.6257V93.9204L122.408 94.4578C121.11 94.6593 120.124 94.984 119.453 95.4318C118.803 95.8796 118.479 96.4281 118.479 97.0774C118.479 97.7939 118.781 98.3537 119.385 98.7567C119.99 99.1597 120.718 99.3612 121.569 99.3612Z" fill="black"/>
<path d="M137.24 108.597C137.061 108.597 136.904 108.53 136.77 108.396C136.635 108.261 136.568 108.105 136.568 107.925C136.568 107.724 136.613 107.545 136.703 107.388L139.322 101.175L132.874 85.9607C132.784 85.7592 132.74 85.6025 132.74 85.4905C132.762 85.289 132.84 85.1211 132.975 84.9867C133.109 84.83 133.277 84.7517 133.478 84.7517H136.199C136.624 84.7517 136.927 84.9644 137.106 85.3898L141.572 96.3721L146.174 85.3898C146.353 84.9644 146.655 84.7517 147.08 84.7517H149.767C149.946 84.7517 150.103 84.8188 150.237 84.9532C150.394 85.0875 150.473 85.2442 150.473 85.4234C150.473 85.5801 150.428 85.7592 150.338 85.9607L140.834 107.959C140.632 108.384 140.319 108.597 139.893 108.597H137.24Z" fill="black"/>
<path d="M50.816 68.0466C50.4266 68.0466 50.0761 67.9103 49.7646 67.6378C49.492 67.3263 49.3557 66.9758 49.3557 66.5864V28.6205C49.3557 28.1921 49.492 27.8417 49.7646 27.5691C50.0761 27.2965 50.4266 27.1602 50.816 27.1602H78.093C78.5214 27.1602 78.8718 27.2965 79.1444 27.5691C79.417 27.8417 79.5533 28.1921 79.5533 28.6205V34.1109C79.5533 34.5003 79.417 34.8508 79.1444 35.1623C78.8718 35.4349 78.5214 35.5711 78.093 35.5711H59.4605V43.4564H76.808C77.2364 43.4564 77.5868 43.6121 77.8594 43.9237C78.132 44.1962 78.2683 44.5467 78.2683 44.975V50.0566C78.2683 50.446 78.132 50.7965 77.8594 51.108C77.5868 51.3806 77.2364 51.5168 76.808 51.5168H59.4605V59.6357H78.5603C78.9886 59.6357 79.3391 59.772 79.6117 60.0446C79.8843 60.3172 80.0205 60.6676 80.0205 61.0959V66.5864C80.0205 66.9758 79.8843 67.3263 79.6117 67.6378C79.3391 67.9103 78.9886 68.0466 78.5603 68.0466H50.816Z" fill="black"/>
<path d="M101.905 68.6307C98.2056 68.6307 95.032 68.0856 92.3841 66.9953C89.7362 65.905 87.7309 64.4837 86.368 62.7314C85.044 60.9402 84.3431 58.9932 84.2652 56.8905C84.2652 56.579 84.3821 56.3064 84.6157 56.0728C84.8883 55.8002 85.1998 55.6639 85.5502 55.6639H92.9098C93.3771 55.6639 93.747 55.7612 94.0196 55.9559C94.3311 56.1117 94.6426 56.3648 94.9541 56.7153C95.4603 57.7277 96.2781 58.5649 97.4073 59.2269C98.5365 59.8888 100.036 60.2198 101.905 60.2198C104.124 60.2198 105.818 59.8693 106.986 59.1684C108.155 58.4675 108.739 57.5135 108.739 56.3064C108.739 55.4497 108.427 54.7488 107.804 54.2037C107.22 53.6585 106.285 53.1718 105 52.7434C103.715 52.3151 101.807 51.8284 99.2764 51.2832C94.6037 50.3097 91.0991 48.8884 88.7627 47.0193C86.4653 45.1113 85.3166 42.405 85.3166 38.9005C85.3166 36.5252 85.9786 34.403 87.3025 32.5339C88.6265 30.6648 90.515 29.2046 92.9682 28.1532C95.4214 27.1018 98.2834 26.5761 101.554 26.5761C104.942 26.5761 107.882 27.1602 110.374 28.3284C112.866 29.4966 114.755 30.9763 116.04 32.7675C117.364 34.5198 118.065 36.2526 118.143 37.9659C118.143 38.3164 118.026 38.6084 117.792 38.8421C117.558 39.0757 117.266 39.1925 116.916 39.1925H109.206C108.739 39.1925 108.349 39.1146 108.038 38.9589C107.765 38.8031 107.512 38.55 107.278 38.1996C107.045 37.304 106.402 36.5446 105.351 35.9216C104.339 35.2986 103.073 34.9871 101.554 34.9871C99.8021 34.9871 98.4587 35.2986 97.5241 35.9216C96.5896 36.5446 96.1223 37.4597 96.1223 38.6668C96.1223 39.4846 96.3754 40.166 96.8816 40.7112C97.4268 41.2563 98.2834 41.7625 99.4516 42.2298C100.659 42.6581 102.372 43.1059 104.592 43.5732C108.213 44.2352 111.095 45.0724 113.236 46.0848C115.417 47.0583 117.013 48.3433 118.026 49.9398C119.038 51.4974 119.544 53.4638 119.544 55.8391C119.544 58.4481 118.785 60.726 117.266 62.673C115.787 64.581 113.703 66.0607 111.017 67.1121C108.369 68.1245 105.331 68.6307 101.905 68.6307Z" fill="black"/>
<path d="M140.635 68.6307C137.208 68.6307 134.171 68.0272 131.523 66.82C128.914 65.574 126.87 63.8412 125.39 61.6216C123.95 59.4021 123.229 56.871 123.229 54.0284C123.229 50.5628 124.865 46.6105 128.136 42.1714L138.416 28.3284C138.727 27.978 139.019 27.7054 139.292 27.5107C139.603 27.2771 140.012 27.1602 140.518 27.1602H148.287C148.637 27.1602 148.929 27.2965 149.163 27.5691C149.396 27.8027 149.513 28.0948 149.513 28.4452C149.513 28.7178 149.435 28.9709 149.28 29.2046L141.394 39.9518C141.862 39.835 142.446 39.7766 143.147 39.7766C145.522 39.8934 147.819 40.5554 150.039 41.7625C152.297 42.9307 154.128 44.5662 155.529 46.6689C156.931 48.7716 157.632 51.1469 157.632 53.7948C157.632 56.5206 156.931 59.0127 155.529 61.2712C154.128 63.5297 152.122 65.3209 149.513 66.6448C146.943 67.9688 143.984 68.6307 140.635 68.6307ZM140.518 60.2198C142.309 60.2198 143.828 59.6747 145.074 58.5844C146.32 57.4551 146.943 55.917 146.943 53.97C146.943 52.0231 146.32 50.5044 145.074 49.4141C143.867 48.3238 142.348 47.7787 140.518 47.7787C138.688 47.7787 137.15 48.3238 135.904 49.4141C134.658 50.5044 134.035 52.0231 134.035 53.97C134.035 55.917 134.658 57.4551 135.904 58.5844C137.15 59.6747 138.688 60.2198 140.518 60.2198Z" fill="black"/>
</svg>
